<svg xmlns="http://www.w3.org/2000/svg" version="1.1" xmlns:xlink="http://www.w3.org/1999/xlink" xmlns:svgjs="http://svgjs.com/svgjs" width="1920" height="1080" preserveAspectRatio="none" viewBox="0 0 1920 1080">
    <g mask="url(&quot;#SvgjsMask1021&quot;)" fill="none">
        <rect width="1920" height="1080" x="0" y="0" fill="rgba(164, 26, 19, 1)"></rect>
        <path d="M0,569.118C114.525,559.726,238.773,584.036,334.146,519.941C429,456.195,463.503,337.053,504.21,230.265C542.6,129.556,560.088,26.755,563.215,-80.978C566.918,-208.57,597.411,-349.637,524.073,-454.112C449.671,-560.103,306.749,-585.066,182.871,-622.801C57.824,-660.892,-77.241,-724.293,-197.916,-674.04C-317.508,-624.238,-353.824,-476.727,-426.091,-369.21C-488.647,-276.141,-561.814,-192.886,-593.604,-85.347C-629.174,34.978,-658.648,163.617,-618.772,282.584C-577.122,406.843,-490.248,522.726,-371.326,577.795C-256.655,630.896,-125.946,579.447,0,569.118" fill="#83150f"></path>
        <path d="M1920 1849.1390000000001C2059.692 1826.0720000000001 2148.949 1697.143 2260.956 1610.537 2361.9809999999998 1532.423 2476.108 1472.886 2545.365 1365.595 2621.786 1247.206 2678.5879999999997 1112.5 2673.339 971.686 2667.798 823.053 2625.361 664.2570000000001 2515.484 564.01 2408.393 466.30600000000004 2238.758 506.55600000000004 2104.256 452.48299999999995 1948.87 390.014 1835.191 207.22699999999998 1668.511 223.50699999999995 1502.549 239.71699999999998 1396.3980000000001 405.655 1287.833 532.224 1179.752 658.23 1077.321 791.546 1042.1190000000001 953.78 1005.409 1122.967 999.227 1311.113 1086.37 1460.7060000000001 1171.237 1606.3899999999999 1345.263 1665.299 1498.088 1736.508 1632.757 1799.258 1773.414 1873.344 1920 1849.1390000000001" fill="#c51f17"></path>
    </g>
    <defs>
        <mask id="SvgjsMask1021">
            <rect width="1920" height="1080" fill="#ffffff"></rect>
        </mask>
    </defs>
</svg>